<svg xmlns="http://www.w3.org/2000/svg" viewBox="0 0 960 300" width="960" height="300" font-family="Georgia, serif">
  <!-- Three equal panels: inequality form | SEF in 2D | SEF in 3D. Stage: feasible region (green). -->

  <line x1="320" y1="30" x2="320" y2="270" stroke="#d8d0bb" stroke-width="1.5" stroke-dasharray="4 4"/>
  <line x1="640" y1="30" x2="640" y2="270" stroke="#d8d0bb" stroke-width="1.5" stroke-dasharray="4 4"/>

  <!-- ===== Panel 1: inequality-form triangle ===== -->
  <g>
    <text x="170" y="30" text-anchor="middle" font-size="15" fill="#586e75">inequality form</text>
    <line x1="50" y1="250" x2="290" y2="250" stroke="#93a1a1" stroke-width="1.5"/>
    <line x1="50" y1="250" x2="50"  y2="50"  stroke="#93a1a1" stroke-width="1.5"/>
    <text x="294" y="254" font-size="13" font-style="italic" fill="#93a1a1">x&#8321;</text>
    <text x="42"  y="52"  font-size="13" font-style="italic" fill="#93a1a1">x&#8322;</text>
    <polygon points="80,230 260,230 130,80"
             fill="#859900" fill-opacity="0.25" stroke="#556100" stroke-width="2.5" stroke-linejoin="round"/>
    <text x="160" y="190" text-anchor="middle" font-size="14" fill="#556100">feasible</text>
  </g>

  <!-- ===== Panel 2: SEF in 2D, feasible segment (green) ===== -->
  <g>
    <text x="490" y="30" text-anchor="middle" font-size="15" fill="#586e75">SEF in 2D</text>
    <line x1="370" y1="250" x2="610" y2="250" stroke="#93a1a1" stroke-width="1.5"/>
    <line x1="370" y1="250" x2="370" y2="50"  stroke="#93a1a1" stroke-width="1.5"/>
    <text x="614" y="254" font-size="13" font-style="italic" fill="#93a1a1">x&#8321;</text>
    <text x="362" y="52"  font-size="13" font-style="italic" fill="#93a1a1">x&#8322;</text>
    <!-- feasible segment: 1-simplex from (1,0)=(520,250) to (0,1)=(370,100) -->
    <line x1="520" y1="250" x2="370" y2="100" stroke="#268bd2" stroke-width="4.5"/>
    <circle cx="520" cy="250" r="4.5" fill="#268bd2"/>
    <circle cx="370" cy="100" r="4.5" fill="#268bd2"/>
    <text x="470" y="165" font-size="14" fill="#0d5a8a">feasible</text>
  </g>

  <!-- ===== Panel 3: SEF in 3D, feasible simplex (green) ===== -->
  <g>
    <text x="800" y="30" text-anchor="middle" font-size="15" fill="#586e75">SEF in 3D</text>
    <line x1="800" y1="200" x2="700" y2="240" stroke="#93a1a1" stroke-width="1.5"/>
    <line x1="800" y1="200" x2="900" y2="240" stroke="#93a1a1" stroke-width="1.5"/>
    <line x1="800" y1="200" x2="800" y2="55"  stroke="#93a1a1" stroke-width="1.5"/>
    <text x="694" y="252" font-size="13" font-style="italic" fill="#93a1a1">x&#8321;</text>
    <text x="906" y="252" font-size="13" font-style="italic" fill="#93a1a1">x&#8322;</text>
    <text x="800" y="48"  text-anchor="middle" font-size="13" font-style="italic" fill="#93a1a1">x&#8323;</text>
    <!-- feasible simplex triangle: symmetric probability simplex e1 e2 e3 -->
    <polygon points="700,240 900,240 800,90" fill="#268bd2" fill-opacity="0.30" stroke="#0d5a8a" stroke-width="2.5" stroke-linejoin="round"/>
    <text x="800" y="205" text-anchor="middle" font-size="14" fill="#0d5a8a">feasible</text>
  </g>
</svg>
